<svg width="32" height="32" viewBox="0 0 32 32" fill="none" xmlns="http://www.w3.org/2000/svg">
<path opacity="0.07" fill-rule="evenodd" clip-rule="evenodd" d="M0 16C0 7.16344 7.16344 0 16 0C24.8366 0 32 7.16344 32 16C32 24.8366 24.8366 32 16 32C7.16344 32 0 24.8366 0 16Z" fill="white"/>
<path d="M22.9968 14.1926C23.0282 13.3544 22.8292 12.5224 22.4181 11.774C22.1391 11.4669 21.752 11.2597 21.3242 11.1884C19.5546 11.0405 17.7778 10.9799 16.0012 11.0068C14.2311 10.9787 12.4606 11.0374 10.6973 11.1825C10.3486 11.2409 10.026 11.3915 9.76876 11.6159C9.1964 12.102 9.1328 12.9335 9.0692 13.6363C8.97693 14.8998 8.97693 16.1676 9.0692 17.4311C9.0876 17.8266 9.15156 18.2192 9.25999 18.6023C9.33667 18.8981 9.49181 19.1718 9.71152 19.3988C9.97053 19.635 10.3007 19.7942 10.6591 19.8556C12.0302 20.0114 13.4117 20.076 14.7929 20.0488C17.0187 20.0781 18.9711 20.0488 21.2797 19.8848C21.6469 19.8272 21.9864 19.6679 22.2527 19.4281C22.4307 19.264 22.5637 19.0633 22.6406 18.8424C22.8681 18.1998 22.9798 17.5272 22.9713 16.8513C22.9968 16.5234 22.9968 14.544 22.9968 14.1926ZM14.5639 17.2027V13.5777L18.3288 15.399C17.2731 15.9378 15.8804 16.5468 14.5639 17.2027Z" fill="white"/>
</svg>
