<svg width="32" height="32" viewBox="0 0 32 32" fill="none" xmlns="http://www.w3.org/2000/svg">
<path opacity="0.07" fill-rule="evenodd" clip-rule="evenodd" d="M0 16C0 7.16344 7.16344 0 16 0C24.8366 0 32 7.16344 32 16C32 24.8366 24.8366 32 16 32C7.16344 32 0 24.8366 0 16Z" fill="white"/>
<path d="M21.5324 9.30645C21.3512 9.15321 21.1326 9.05278 20.8997 9.01584C20.6668 8.9789 20.4284 9.00685 20.2099 9.0967L8.80544 13.7777C8.56155 13.8797 8.35394 14.0548 8.21017 14.2795C8.0664 14.5043 7.99327 14.7682 8.00049 15.0362C8.0077 15.3042 8.09492 15.5637 8.25057 15.7801C8.40621 15.9966 8.62293 16.1598 8.87194 16.2481L11.1788 17.0637L12.4646 21.3865C12.4821 21.4443 12.5075 21.4992 12.54 21.5498C12.5449 21.5576 12.5518 21.5634 12.5571 21.5709C12.5946 21.6242 12.64 21.6712 12.6916 21.7105C12.7063 21.7219 12.7204 21.7325 12.7361 21.7426C12.7965 21.7834 12.8634 21.8132 12.9338 21.8307L12.9414 21.8313L12.9456 21.8332C12.988 21.842 13.0311 21.8464 13.0743 21.8465C13.0784 21.8465 13.0821 21.8444 13.0862 21.8444C13.1514 21.8432 13.2161 21.8318 13.2778 21.8105C13.2922 21.8056 13.3045 21.7972 13.3185 21.7912C13.3645 21.7718 13.4082 21.7469 13.4485 21.7171C13.4807 21.6895 13.513 21.6618 13.5453 21.6342L15.2649 19.704L17.8297 21.7239C18.0555 21.9026 18.3335 21.9998 18.6196 22C18.9195 21.9996 19.2101 21.8944 19.4427 21.7021C19.6753 21.5098 19.8359 21.242 19.8974 20.9436L21.9737 10.5814C22.0207 10.3482 22.0045 10.1064 21.9268 9.8818C21.8491 9.65722 21.7128 9.45835 21.5324 9.30645ZM13.3266 17.2697C13.2384 17.3591 13.178 17.4729 13.1532 17.597L12.9562 18.57L12.4573 16.8924L15.0443 15.5228L13.3266 17.2697ZM18.6097 20.701L15.5788 18.3141C15.452 18.2144 15.2929 18.1671 15.1333 18.1813C14.9737 18.1956 14.8252 18.2705 14.7174 18.3911L14.1667 19.0091L14.3613 18.0474L18.8688 13.465C18.9764 13.3557 19.042 13.2109 19.0536 13.0568C19.0652 12.9027 19.0222 12.7494 18.9323 12.6248C18.8423 12.5001 18.7115 12.4123 18.5634 12.3773C18.4153 12.3423 18.2597 12.3624 18.1249 12.4339L11.6559 15.858L9.28584 14.9763L20.727 10.323L18.6097 20.701Z" fill="white"/>
</svg>
