<svg width="32" height="32" viewBox="0 0 32 32" fill="none" xmlns="http://www.w3.org/2000/svg">
<path opacity="0.07" fill-rule="evenodd" clip-rule="evenodd" d="M0 16C0 7.16344 7.16344 0 16 0C24.8366 0 32 7.16344 32 16C32 24.8366 24.8366 32 16 32C7.16344 32 0 24.8366 0 16Z" fill="white"/>
<path d="M18.3823 16.9732C18.1964 16.7722 17.9877 16.5936 17.7603 16.4411C18.6778 15.7318 19.3208 14.7261 19.5795 13.5956C19.5986 13.5139 19.6014 13.4293 19.5877 13.3465C19.5739 13.2637 19.544 13.1845 19.4995 13.1134C19.455 13.0422 19.3969 12.9806 19.3285 12.932C19.2601 12.8834 19.1828 12.8488 19.101 12.8302C19.0192 12.8116 18.9345 12.8094 18.8518 12.8236C18.7691 12.8379 18.6901 12.8683 18.6192 12.9132C18.5483 12.9582 18.4871 13.0166 18.4389 13.0853C18.3907 13.154 18.3566 13.2316 18.3385 13.3135C18.218 13.8423 17.9836 14.3384 17.6516 14.7673C17.3196 15.1962 16.8981 15.5475 16.4164 15.7967V13.4558C16.4124 13.409 16.4031 13.3628 16.3886 13.3181C16.3844 13.2813 16.377 13.2449 16.3666 13.2094C16.3395 13.1515 16.3037 13.0981 16.2605 13.051C16.2491 13.0375 16.2433 13.0196 16.2309 13.0071C16.1843 12.9641 16.1315 12.9283 16.0743 12.9008C16.0581 12.8922 16.046 12.8775 16.0289 12.8703C15.9802 12.854 15.9297 12.8436 15.8785 12.8393C15.8469 12.8301 15.8146 12.8234 15.7819 12.8195L15.3655 12.8182H15.3636C15.2148 12.8175 15.0704 12.8692 14.9559 12.9644C14.8414 13.0595 14.764 13.1919 14.7375 13.3384C14.7109 13.4849 14.7367 13.636 14.8105 13.7653C14.8843 13.8947 15.0012 13.9938 15.1408 14.0455V17.1578C14.1324 16.1109 13.4647 14.7833 13.2255 13.3495C13.2116 13.2672 13.1815 13.1883 13.1371 13.1176C13.0927 13.0468 13.0348 12.9855 12.9667 12.9371C12.8985 12.8887 12.8215 12.8542 12.7401 12.8356C12.6586 12.8169 12.5743 12.8145 12.4919 12.8285C12.4095 12.8424 12.3307 12.8725 12.2599 12.9169C12.1892 12.9613 12.1278 13.0192 12.0794 13.0874C12.0311 13.1555 11.9966 13.2325 11.9779 13.3139C11.9593 13.3954 11.9569 13.4797 11.9708 13.5621C12.3427 15.7783 13.5785 17.7564 15.4071 19.0625C15.4332 19.0782 15.4604 19.0919 15.4885 19.1035C15.5105 19.1165 15.5334 19.128 15.5569 19.138C15.6279 19.1664 15.7035 19.1817 15.78 19.1831C15.8736 19.1819 15.9658 19.1598 16.0497 19.1183C16.056 19.1153 16.0633 19.1167 16.0696 19.1135C16.1258 19.0842 16.1774 19.0466 16.2224 19.0019C16.2315 18.9931 16.2375 18.9823 16.2461 18.973C16.2871 18.9279 16.3214 18.877 16.3478 18.822C16.3567 18.8038 16.3648 18.7863 16.3719 18.7672C16.3998 18.6969 16.4149 18.6223 16.4164 18.5467L16.4167 17.1938C16.811 17.3096 17.1662 17.5307 17.4442 17.8333L18.4929 18.9767C18.5494 19.0385 18.6174 19.0886 18.6932 19.1241C18.769 19.1595 18.851 19.1797 18.9346 19.1834C19.0182 19.1871 19.1017 19.1743 19.1803 19.1457C19.259 19.117 19.3312 19.0732 19.3928 19.0166C19.4545 18.9601 19.5044 18.8919 19.5397 18.8161C19.575 18.7402 19.5949 18.6581 19.5985 18.5745C19.602 18.4909 19.589 18.4074 19.5602 18.3289C19.5314 18.2503 19.4874 18.1782 19.4307 18.1167L18.3823 16.9732ZM17.9554 9H14.0511C10.1329 9 9 10.1317 9 14.0443V17.9489C9 21.8671 10.1313 23 14.0446 23H17.9489C21.8671 23 23 21.8683 23 17.9557V14.0511C23 10.1329 21.8687 9 17.9554 9ZM21.7273 17.9557C21.7273 21.163 21.1624 21.7273 17.9489 21.7273H14.0446C10.8367 21.7273 10.2727 21.1624 10.2727 17.9489V14.0443C10.2727 10.837 10.8376 10.2727 14.0511 10.2727H17.9554C21.1633 10.2727 21.7273 10.8376 21.7273 14.0511V17.9557Z" fill="white"/>
</svg>
