<svg width="61" height="87" viewBox="0 0 61 87" fill="none" xmlns="http://www.w3.org/2000/svg">
<path d="M0 69.6993C6.67749 69.6993 12.7097 65.713 15.3321 59.571L25.0577 36.7787L15.2818 34.083L0 69.6993Z" fill="white"/>
<path d="M21.4607 50.8204L16.8519 61.4934L42.0195 53.8548L44.1889 58.8709C47.031 65.4432 53.5072 69.6995 60.6698 69.6995L48.427 43.0674L21.4607 50.8204Z" fill="white"/>
<path d="M16.2928 31.9092L47.639 41.383L43.3689 30.9343L29.4373 26.7786L29.9956 25.4651C33.4465 17.3276 33.4465 8.13748 30.0002 0L16.2928 31.9092Z" fill="white"/>
<path d="M2.1601 75.9922C0.983873 75.9922 0.0273285 76.9442 0.0273285 78.125H7.86274C9.03897 78.125 9.99551 77.173 9.99551 75.9922H2.1601Z" fill="white"/>
<path d="M58.5137 75.9927C59.69 75.9927 60.6465 76.9446 60.6465 78.1254H52.8111C51.6349 78.1254 50.6783 77.1735 50.6783 75.9927H58.5137Z" fill="white"/>
<path d="M14.6231 73.6035H14.5453L11.3461 80.9767C12.1791 80.9767 12.9342 80.4732 13.2546 79.7043L14.5132 76.6837L15.6116 79.4709C15.9686 80.3817 16.8474 80.9767 17.8268 80.9767L14.6231 73.6035Z" fill="white"/>
<path d="M17.7939 73.8823H21.2264C21.9724 73.8823 22.5766 74.4865 22.5766 75.2325H20.8511V79.5804C20.8511 80.3539 20.2241 80.9763 19.4552 80.9763V75.2325H19.1486C18.398 75.2325 17.7939 74.6283 17.7939 73.8823Z" fill="white"/>
<path d="M23.9229 73.8823C24.6964 73.8823 25.3188 74.5093 25.3188 75.2782V79.6262H27.3051C28.0511 79.6262 28.6553 80.2303 28.6553 80.9763H23.9229V73.8823Z" fill="white"/>
<path d="M32.5773 73.603H32.4995L29.3004 80.9762C30.1333 80.9762 30.8885 80.4727 31.2089 79.7038L32.4675 76.6832L33.5659 79.4704C33.9229 80.3812 34.8016 80.9762 35.7811 80.9762L32.5773 73.603Z" fill="white"/>
<path d="M41.7901 73.8822L41.8176 78.1569L36.8655 73.603H36.806V79.5574C36.806 80.34 37.4422 80.9762 38.2248 80.9762L38.1973 76.7839L43.1586 81.2645H43.1952V75.2873C43.1997 74.5138 42.5682 73.8822 41.7901 73.8822Z" fill="white"/>
<path d="M44.5499 73.8823H47.9825C48.7285 73.8823 49.3326 74.4865 49.3326 75.2325H47.6072V79.5804C47.6072 80.3539 46.9802 80.9763 46.2113 80.9763V75.2325H45.9046C45.154 75.2325 44.5499 74.6283 44.5499 73.8823Z" fill="white"/>
<path d="M12.719 85.9202C12.5634 86.117 12.298 86.2223 12.0188 86.2223C11.4375 86.2223 11.0439 85.847 11.0439 85.2703C11.0439 84.7394 11.433 84.3184 11.9684 84.3184C12.2614 84.3184 12.5177 84.387 12.687 84.5563L12.536 84.8126C12.3804 84.6708 12.2019 84.6204 12.0142 84.6204C11.6847 84.6204 11.3918 84.8859 11.3918 85.2703C11.3918 85.6731 11.6893 85.9202 12.0463 85.9202C12.2659 85.9202 12.449 85.8241 12.568 85.6868L12.719 85.9202Z" fill="white"/>
<path d="M13.8905 84.3223C14.4717 84.3223 14.8608 84.7296 14.8608 85.2742C14.8608 85.8189 14.4717 86.2262 13.8905 86.2262C13.3092 86.2262 12.9202 85.8189 12.9202 85.2742C12.9202 84.725 13.3092 84.3223 13.8905 84.3223ZM13.8905 85.9196C14.2566 85.9196 14.5175 85.6587 14.5175 85.2697C14.5175 84.8898 14.252 84.6198 13.8905 84.6198C13.5335 84.6198 13.2635 84.8852 13.2635 85.2697C13.2635 85.6541 13.5289 85.9196 13.8905 85.9196Z" fill="white"/>
<path d="M15.3324 84.3641H15.6573V84.5883C15.7809 84.451 16.0143 84.332 16.2523 84.332C16.7283 84.332 17.012 84.5609 17.012 85.133V86.1856H16.6871V85.1925C16.6871 84.8126 16.5132 84.6341 16.1745 84.6341C15.9685 84.6341 15.7763 84.7348 15.6619 84.8675V86.1856H15.3369V84.3641H15.3324Z" fill="white"/>
<path d="M17.4923 84.8349C17.4923 84.5145 17.7532 84.3223 18.1102 84.3223C18.4122 84.3223 18.6273 84.4321 18.7372 84.5374L18.5816 84.7845C18.4717 84.6884 18.3161 84.606 18.1239 84.606C17.9408 84.606 17.831 84.7113 17.831 84.8349C17.831 85.2193 18.815 85.0362 18.815 85.677C18.815 86.0614 18.4763 86.2262 18.1102 86.2262C17.8127 86.2262 17.5243 86.0706 17.4374 85.9424L17.6205 85.7136C17.7257 85.8372 17.9637 85.9424 18.1468 85.9424C18.3161 85.9424 18.4717 85.8555 18.4717 85.6907C18.4763 85.32 17.4923 85.5031 17.4923 84.8349Z" fill="white"/>
<path d="M19.2548 83.856H19.5798V84.364H20.248V84.666H19.5798V85.4578C19.5798 85.7462 19.6713 85.9109 19.9047 85.9109C20.0283 85.9109 20.129 85.8606 20.1931 85.8102L20.2937 86.062C20.1976 86.1443 20.0283 86.2176 19.8269 86.2176C19.4196 86.2176 19.2548 85.9567 19.2548 85.4944V83.856Z" fill="white"/>
<path d="M20.7283 84.3641H21.0532V84.5792C21.1447 84.4419 21.282 84.332 21.5109 84.332C21.6619 84.332 21.7351 84.3549 21.7946 84.4007L21.6802 84.7027C21.5933 84.6478 21.5429 84.6341 21.4331 84.6341C21.2226 84.6341 21.1219 84.7577 21.0532 84.895V86.1856H20.7283V84.3641Z" fill="white"/>
<path d="M23.7081 86.1848H23.3832V85.9239C23.2596 86.0796 23.0262 86.226 22.7378 86.226C22.3305 86.226 22.065 85.9835 22.065 85.448V84.3633H22.39V85.3747C22.39 85.718 22.5273 85.9239 22.8614 85.9239C23.0719 85.9239 23.2687 85.8004 23.3832 85.6539V84.3678H23.7081V86.1848Z" fill="white"/>
<path d="M25.8499 85.9202C25.6943 86.117 25.4288 86.2223 25.1497 86.2223C24.5684 86.2223 24.1748 85.847 24.1748 85.2703C24.1748 84.7394 24.5638 84.3184 25.0993 84.3184C25.3922 84.3184 25.6485 84.387 25.8179 84.5563L25.6668 84.8126C25.5112 84.6708 25.3327 84.6204 25.1451 84.6204C24.8156 84.6204 24.5226 84.8859 24.5226 85.2703C24.5226 85.6731 24.8201 85.9202 25.1771 85.9202C25.3968 85.9202 25.5799 85.8241 25.6989 85.6868L25.8499 85.9202Z" fill="white"/>
<path d="M26.2293 83.856H26.5543V84.364H27.2225V84.666H26.5543V85.4578C26.5543 85.7462 26.6458 85.9109 26.8792 85.9109C27.0028 85.9109 27.1035 85.8606 27.1675 85.8102L27.2682 86.062C27.1721 86.1443 27.0028 86.2176 26.8014 86.2176C26.3941 86.2176 26.2293 85.9567 26.2293 85.4944V83.856Z" fill="white"/>
<path d="M27.9596 83.4805C28.0603 83.4805 28.1564 83.5583 28.1564 83.6727C28.1564 83.8054 28.0603 83.8832 27.9596 83.8832C27.8452 83.8832 27.7491 83.8054 27.7491 83.6727C27.7491 83.5583 27.8452 83.4805 27.9596 83.4805ZM27.7903 84.3638H28.1152V86.1853H27.7903V84.3638Z" fill="white"/>
<path d="M29.6391 84.3223C30.2204 84.3223 30.6094 84.7296 30.6094 85.2742C30.6094 85.8189 30.2204 86.2262 29.6391 86.2262C29.0579 86.2262 28.6688 85.8189 28.6688 85.2742C28.6643 84.725 29.0533 84.3223 29.6391 84.3223ZM29.6391 85.9196C30.0052 85.9196 30.2661 85.6587 30.2661 85.2697C30.2661 84.8898 30.0007 84.6198 29.6391 84.6198C29.2821 84.6198 29.0121 84.8852 29.0121 85.2697C29.0075 85.6541 29.273 85.9196 29.6391 85.9196Z" fill="white"/>
<path d="M31.0762 84.3641H31.4012V84.5883C31.5247 84.451 31.7582 84.332 31.9962 84.332C32.4721 84.332 32.7559 84.5609 32.7559 85.133V86.1856H32.4309V85.1925C32.4309 84.8126 32.257 84.6341 31.9183 84.6341C31.7124 84.6341 31.5202 84.7348 31.4057 84.8675V86.1856H31.0808V84.3641H31.0762Z" fill="white"/>
<path d="M35.7677 85.9202C35.6121 86.117 35.3466 86.2223 35.0675 86.2223C34.4862 86.2223 34.0926 85.847 34.0926 85.2703C34.0926 84.7394 34.4816 84.3184 35.0171 84.3184C35.31 84.3184 35.5663 84.387 35.7357 84.5563L35.5846 84.8126C35.429 84.6708 35.2505 84.6204 35.0629 84.6204C34.7334 84.6204 34.4404 84.8859 34.4404 85.2703C34.4404 85.6731 34.7379 85.9202 35.0949 85.9202C35.3146 85.9202 35.4977 85.8241 35.6167 85.6868L35.7677 85.9202Z" fill="white"/>
<path d="M36.9439 84.3223C37.5252 84.3223 37.9142 84.7296 37.9142 85.2742C37.9142 85.8189 37.5252 86.2262 36.9439 86.2262C36.3627 86.2262 35.9737 85.8189 35.9737 85.2742C35.9691 84.725 36.3581 84.3223 36.9439 84.3223ZM36.9439 85.9196C37.3101 85.9196 37.5709 85.6587 37.5709 85.2697C37.5709 84.8898 37.3055 84.6198 36.9439 84.6198C36.5869 84.6198 36.3169 84.8852 36.3169 85.2697C36.3169 85.6541 36.5778 85.9196 36.9439 85.9196Z" fill="white"/>
<path d="M41.0859 86.1853H40.761V85.0777C40.761 84.7757 40.6328 84.6338 40.3674 84.6338C40.1477 84.6338 39.9738 84.7482 39.8914 84.8992C39.896 84.9313 39.8959 84.9862 39.8959 85.0274V86.1853H39.571V85.0091C39.571 84.7848 39.4383 84.6338 39.182 84.6338C38.9714 84.6338 38.7975 84.7482 38.706 84.8809V86.1853H38.381V84.3638H38.706V84.5926C38.8387 84.4324 39.0767 84.3271 39.3101 84.3271C39.5939 84.3271 39.7907 84.4507 39.8593 84.6429C39.9875 84.4553 40.2255 84.3271 40.5001 84.3271C40.8342 84.3271 41.0859 84.4873 41.0859 84.9862V86.1853Z" fill="white"/>
<path d="M41.6351 84.3635H41.96V84.5786C42.0836 84.4321 42.3308 84.3223 42.5779 84.3223C43.0951 84.3223 43.42 84.7067 43.42 85.2468C43.42 85.8006 43.0447 86.2262 42.4726 86.2262C42.2804 86.2262 42.0882 86.185 41.96 86.1026V86.9997H41.6351V84.3635ZM41.96 84.8761V85.7777C42.1202 85.8875 42.2713 85.9196 42.4452 85.9196C42.8342 85.9196 43.0768 85.6404 43.0768 85.2559C43.0768 84.8852 42.8617 84.6243 42.4864 84.6243C42.2713 84.6243 42.0745 84.7342 41.96 84.8761Z" fill="white"/>
<path d="M43.9006 84.487C44.0608 84.3863 44.2804 84.3223 44.5093 84.3223C45.0264 84.3223 45.2095 84.5923 45.2095 85.0683V86.185H44.9029V85.9516C44.793 86.0889 44.6191 86.2171 44.3216 86.2171C43.9875 86.2171 43.7633 86.0065 43.7633 85.6541C43.7633 85.2834 44.0607 85.0729 44.4498 85.0729C44.5917 85.0729 44.7839 85.1003 44.9029 85.1919C44.9029 84.8532 44.8479 84.6152 44.491 84.6152C44.2667 84.6152 44.134 84.6701 43.9875 84.7479L43.9006 84.487ZM44.9029 85.6861V85.4573C44.7885 85.3749 44.6512 85.3337 44.4955 85.3337C44.3033 85.3337 44.1065 85.4207 44.1065 85.6358C44.1065 85.8097 44.2255 85.9241 44.436 85.9241C44.6695 85.9196 44.8068 85.796 44.9029 85.6861Z" fill="white"/>
<path d="M45.7542 84.3641H46.0791V84.5883C46.2027 84.451 46.4361 84.332 46.6741 84.332C47.1501 84.332 47.4339 84.5609 47.4339 85.133V86.1856H47.1089V85.1925C47.1089 84.8126 46.935 84.6341 46.5963 84.6341C46.3903 84.6341 46.1981 84.7348 46.0837 84.8675V86.1856H45.7588V84.3641H45.7542Z" fill="white"/>
<path d="M48.9029 86.1848C48.6375 86.8393 48.4636 86.9949 48.2073 86.9949C48.07 86.9949 47.9601 86.9446 47.864 86.8805L47.9693 86.6333C48.0288 86.6608 48.0974 86.6928 48.1706 86.6928C48.3263 86.6928 48.4361 86.5693 48.5597 86.2809L48.6009 86.1848L47.7267 84.3633H48.1157L48.6512 85.5212C48.6924 85.6127 48.7244 85.7043 48.761 85.7958C48.7839 85.7088 48.816 85.6127 48.848 85.5166L49.2691 84.3633H49.6398L48.9029 86.1848Z" fill="white"/>
</svg>
