<svg width="61" height="87" viewBox="0 0 61 87" fill="none" xmlns="http://www.w3.org/2000/svg">
<path d="M0 69.6992C6.67749 69.6992 12.7097 65.7128 15.3321 59.5708L25.0577 36.7786L15.2818 34.0828L0 69.6992Z" fill="black"/>
<path d="M21.4607 50.8203L16.8519 61.4933L42.0195 53.8547L44.1889 58.8708C47.031 65.443 53.5072 69.6994 60.6698 69.6994L48.427 43.0673L21.4607 50.8203Z" fill="black"/>
<path d="M16.2928 31.9092L47.639 41.383L43.3689 30.9343L29.4373 26.7786L29.9956 25.4651C33.4465 17.3276 33.4465 8.13748 30.0002 0L16.2928 31.9092Z" fill="black"/>
<path d="M2.1601 75.9921C0.983873 75.9921 0.0273285 76.9441 0.0273285 78.1249H7.86274C9.03897 78.1249 9.99551 77.173 9.99551 75.9921H2.1601Z" fill="black"/>
<path d="M58.5137 75.9924C59.69 75.9924 60.6465 76.9444 60.6465 78.1252H52.8111C51.6349 78.1252 50.6783 77.1732 50.6783 75.9924H58.5137Z" fill="black"/>
<path d="M14.623 73.6039H14.5452L11.3461 80.977C12.1791 80.977 12.9342 80.4736 13.2546 79.7047L14.5132 76.684L15.6116 79.4713C15.9686 80.382 16.8474 80.977 17.8268 80.977L14.623 73.6039Z" fill="black"/>
<path d="M17.7939 73.8823H21.2264C21.9724 73.8823 22.5766 74.4865 22.5766 75.2325H20.8511V79.5804C20.8511 80.3539 20.2241 80.9763 19.4552 80.9763V75.2325H19.1486C18.398 75.2325 17.7939 74.6283 17.7939 73.8823Z" fill="black"/>
<path d="M23.9229 73.8823C24.6964 73.8823 25.3188 74.5094 25.3188 75.2783V79.6262H27.3051C28.0511 79.6262 28.6553 80.2303 28.6553 80.9763H23.9229V73.8823Z" fill="black"/>
<path d="M32.5773 73.6031H32.4995L29.3004 80.9762C30.1333 80.9762 30.8885 80.4728 31.2089 79.7039L32.4675 76.6833L33.5659 79.4705C33.9229 80.3813 34.8016 80.9762 35.7811 80.9762L32.5773 73.6031Z" fill="black"/>
<path d="M41.7901 73.8823L41.8175 78.157L36.8655 73.6031H36.806V79.5575C36.806 80.3401 37.4422 80.9762 38.2248 80.9762L38.1973 76.7839L43.1585 81.2646H43.1952V75.2873C43.1997 74.5139 42.5681 73.8823 41.7901 73.8823Z" fill="black"/>
<path d="M44.5499 73.8823H47.9825C48.7285 73.8823 49.3326 74.4865 49.3326 75.2325H47.6072V79.5804C47.6072 80.3539 46.9802 80.9763 46.2113 80.9763V75.2325H45.9046C45.154 75.2325 44.5499 74.6283 44.5499 73.8823Z" fill="black"/>
<path d="M12.719 85.9202C12.5634 86.117 12.298 86.2223 12.0188 86.2223C11.4375 86.2223 11.0439 85.847 11.0439 85.2703C11.0439 84.7394 11.433 84.3183 11.9684 84.3183C12.2614 84.3183 12.5177 84.387 12.687 84.5563L12.536 84.8126C12.3804 84.6707 12.2019 84.6204 12.0142 84.6204C11.6847 84.6204 11.3918 84.8859 11.3918 85.2703C11.3918 85.6731 11.6893 85.9202 12.0463 85.9202C12.2659 85.9202 12.449 85.8241 12.568 85.6868L12.719 85.9202Z" fill="black"/>
<path d="M13.8905 84.3225C14.4717 84.3225 14.8608 84.7298 14.8608 85.2745C14.8608 85.8191 14.4717 86.2264 13.8905 86.2264C13.3092 86.2264 12.9202 85.8191 12.9202 85.2745C12.9202 84.7253 13.3092 84.3225 13.8905 84.3225ZM13.8905 85.9198C14.2566 85.9198 14.5175 85.6589 14.5175 85.2699C14.5175 84.89 14.252 84.62 13.8905 84.62C13.5335 84.62 13.2635 84.8854 13.2635 85.2699C13.2635 85.6543 13.5289 85.9198 13.8905 85.9198Z" fill="black"/>
<path d="M15.3324 84.364H15.6573V84.5883C15.7809 84.451 16.0143 84.332 16.2523 84.332C16.7283 84.332 17.012 84.5608 17.012 85.1329V86.1856H16.6871V85.1924C16.6871 84.8126 16.5132 84.6341 16.1745 84.6341C15.9685 84.6341 15.7763 84.7348 15.6619 84.8675V86.1856H15.3369V84.364H15.3324Z" fill="black"/>
<path d="M17.4923 84.8351C17.4923 84.5147 17.7532 84.3225 18.1102 84.3225C18.4122 84.3225 18.6273 84.4323 18.7372 84.5376L18.5816 84.7848C18.4717 84.6886 18.3161 84.6063 18.1239 84.6063C17.9408 84.6063 17.831 84.7115 17.831 84.8351C17.831 85.2196 18.815 85.0365 18.815 85.6772C18.815 86.0617 18.4763 86.2264 18.1102 86.2264C17.8127 86.2264 17.5243 86.0708 17.4374 85.9427L17.6205 85.7138C17.7257 85.8374 17.9637 85.9427 18.1468 85.9427C18.3161 85.9427 18.4717 85.8557 18.4717 85.691C18.4763 85.3202 17.4923 85.5033 17.4923 84.8351Z" fill="black"/>
<path d="M19.2548 83.8561H19.5798V84.3641H20.248V84.6662H19.5798V85.458C19.5798 85.7463 19.6713 85.9111 19.9047 85.9111C20.0283 85.9111 20.129 85.8607 20.1931 85.8104L20.2937 86.0621C20.1976 86.1445 20.0283 86.2177 19.8269 86.2177C19.4196 86.2177 19.2548 85.9568 19.2548 85.4946V83.8561Z" fill="black"/>
<path d="M20.7283 84.364H21.0532V84.5792C21.1447 84.4419 21.282 84.332 21.5109 84.332C21.6619 84.332 21.7351 84.3549 21.7946 84.4007L21.6802 84.7027C21.5933 84.6478 21.5429 84.6341 21.4331 84.6341C21.2226 84.6341 21.1219 84.7576 21.0532 84.8949V86.1856H20.7283V84.364Z" fill="black"/>
<path d="M23.7081 86.185H23.3832V85.9242C23.2596 86.0798 23.0262 86.2262 22.7378 86.2262C22.3305 86.2262 22.065 85.9837 22.065 85.4482V84.3635H22.39V85.375C22.39 85.7182 22.5273 85.9242 22.8614 85.9242C23.0719 85.9242 23.2687 85.8006 23.3832 85.6541V84.3681H23.7081V86.185Z" fill="black"/>
<path d="M25.8499 85.9202C25.6943 86.117 25.4288 86.2223 25.1497 86.2223C24.5684 86.2223 24.1748 85.847 24.1748 85.2703C24.1748 84.7394 24.5638 84.3183 25.0993 84.3183C25.3922 84.3183 25.6485 84.387 25.8179 84.5563L25.6668 84.8126C25.5112 84.6707 25.3327 84.6204 25.1451 84.6204C24.8156 84.6204 24.5226 84.8859 24.5226 85.2703C24.5226 85.6731 24.8201 85.9202 25.1771 85.9202C25.3968 85.9202 25.5799 85.8241 25.6989 85.6868L25.8499 85.9202Z" fill="black"/>
<path d="M26.2293 83.8561H26.5543V84.3641H27.2225V84.6662H26.5543V85.458C26.5543 85.7463 26.6458 85.9111 26.8792 85.9111C27.0028 85.9111 27.1035 85.8607 27.1675 85.8104L27.2682 86.0621C27.1721 86.1445 27.0028 86.2177 26.8014 86.2177C26.3941 86.2177 26.2293 85.9568 26.2293 85.4946V83.8561Z" fill="black"/>
<path d="M27.9596 83.4806C28.0603 83.4806 28.1564 83.5584 28.1564 83.6729C28.1564 83.8056 28.0603 83.8834 27.9596 83.8834C27.8452 83.8834 27.7491 83.8056 27.7491 83.6729C27.7491 83.5584 27.8452 83.4806 27.9596 83.4806ZM27.7903 84.3639H28.1152V86.1855H27.7903V84.3639Z" fill="black"/>
<path d="M29.6391 84.3225C30.2204 84.3225 30.6094 84.7298 30.6094 85.2745C30.6094 85.8191 30.2204 86.2264 29.6391 86.2264C29.0579 86.2264 28.6688 85.8191 28.6688 85.2745C28.6643 84.7253 29.0533 84.3225 29.6391 84.3225ZM29.6391 85.9198C30.0052 85.9198 30.2661 85.6589 30.2661 85.2699C30.2661 84.89 30.0007 84.62 29.6391 84.62C29.2821 84.62 29.0121 84.8854 29.0121 85.2699C29.0075 85.6543 29.273 85.9198 29.6391 85.9198Z" fill="black"/>
<path d="M31.0762 84.364H31.4012V84.5883C31.5247 84.451 31.7582 84.332 31.9962 84.332C32.4721 84.332 32.7559 84.5608 32.7559 85.1329V86.1856H32.4309V85.1924C32.4309 84.8126 32.257 84.6341 31.9183 84.6341C31.7124 84.6341 31.5202 84.7348 31.4057 84.8675V86.1856H31.0808V84.364H31.0762Z" fill="black"/>
<path d="M35.7677 85.9202C35.6121 86.117 35.3466 86.2223 35.0675 86.2223C34.4862 86.2223 34.0926 85.847 34.0926 85.2703C34.0926 84.7394 34.4816 84.3183 35.0171 84.3183C35.31 84.3183 35.5663 84.387 35.7357 84.5563L35.5846 84.8126C35.429 84.6707 35.2505 84.6204 35.0629 84.6204C34.7334 84.6204 34.4404 84.8859 34.4404 85.2703C34.4404 85.6731 34.7379 85.9202 35.0949 85.9202C35.3146 85.9202 35.4977 85.8241 35.6167 85.6868L35.7677 85.9202Z" fill="black"/>
<path d="M36.9439 84.3225C37.5252 84.3225 37.9142 84.7298 37.9142 85.2745C37.9142 85.8191 37.5252 86.2264 36.9439 86.2264C36.3627 86.2264 35.9737 85.8191 35.9737 85.2745C35.9691 84.7253 36.3581 84.3225 36.9439 84.3225ZM36.9439 85.9198C37.3101 85.9198 37.5709 85.6589 37.5709 85.2699C37.5709 84.89 37.3055 84.62 36.9439 84.62C36.5869 84.62 36.3169 84.8854 36.3169 85.2699C36.3169 85.6543 36.5778 85.9198 36.9439 85.9198Z" fill="black"/>
<path d="M41.0859 86.1854H40.761V85.0779C40.761 84.7758 40.6328 84.6339 40.3674 84.6339C40.1477 84.6339 39.9738 84.7483 39.8914 84.8994C39.896 84.9314 39.8959 84.9863 39.8959 85.0275V86.1854H39.571V85.0092C39.571 84.7849 39.4383 84.6339 39.182 84.6339C38.9714 84.6339 38.7975 84.7483 38.706 84.881V86.1854H38.381V84.3639H38.706V84.5927C38.8387 84.4325 39.0767 84.3273 39.3101 84.3273C39.5939 84.3273 39.7907 84.4508 39.8593 84.6431C39.9875 84.4554 40.2255 84.3273 40.5001 84.3273C40.8342 84.3273 41.0859 84.4874 41.0859 84.9863V86.1854V86.1854Z" fill="black"/>
<path d="M41.6351 84.3637H41.96V84.5788C42.0836 84.4324 42.3308 84.3225 42.5779 84.3225C43.0951 84.3225 43.42 84.707 43.42 85.247C43.42 85.8008 43.0447 86.2264 42.4726 86.2264C42.2804 86.2264 42.0882 86.1852 41.96 86.1029V86.9999H41.6351V84.3637ZM41.96 84.8763V85.7779C42.1202 85.8878 42.2713 85.9198 42.4452 85.9198C42.8342 85.9198 43.0768 85.6406 43.0768 85.2562C43.0768 84.8854 42.8617 84.6246 42.4864 84.6246C42.2713 84.6246 42.0745 84.7344 41.96 84.8763Z" fill="black"/>
<path d="M43.9006 84.4873C44.0608 84.3866 44.2804 84.3225 44.5093 84.3225C45.0264 84.3225 45.2095 84.5925 45.2095 85.0685V86.1852H44.9029V85.9518C44.793 86.0891 44.6191 86.2173 44.3216 86.2173C43.9875 86.2173 43.7633 86.0068 43.7633 85.6543C43.7633 85.2836 44.0607 85.0731 44.4498 85.0731C44.5917 85.0731 44.7839 85.1006 44.9029 85.1921C44.9029 84.8534 44.8479 84.6154 44.491 84.6154C44.2667 84.6154 44.134 84.6703 43.9875 84.7482L43.9006 84.4873ZM44.9029 85.6864V85.4575C44.7885 85.3752 44.6512 85.334 44.4955 85.334C44.3033 85.334 44.1065 85.4209 44.1065 85.636C44.1065 85.81 44.2255 85.9244 44.436 85.9244C44.6695 85.9198 44.8068 85.7962 44.9029 85.6864Z" fill="black"/>
<path d="M45.7542 84.364H46.0791V84.5883C46.2027 84.451 46.4361 84.332 46.6741 84.332C47.1501 84.332 47.4339 84.5608 47.4339 85.1329V86.1856H47.1089V85.1924C47.1089 84.8126 46.935 84.6341 46.5963 84.6341C46.3903 84.6341 46.1981 84.7348 46.0837 84.8675V86.1856H45.7588V84.364H45.7542Z" fill="black"/>
<path d="M48.9029 86.185C48.6375 86.8395 48.4636 86.9951 48.2073 86.9951C48.07 86.9951 47.9601 86.9448 47.864 86.8807L47.9693 86.6336C48.0288 86.661 48.0974 86.6931 48.1706 86.6931C48.3263 86.6931 48.4361 86.5695 48.5597 86.2812L48.6009 86.185L47.7267 84.3635H48.1157L48.6512 85.5214C48.6924 85.6129 48.7244 85.7045 48.761 85.796C48.7839 85.709 48.816 85.6129 48.848 85.5168L49.2691 84.3635H49.6398L48.9029 86.185Z" fill="black"/>
</svg>
